{
  "accessors": [
    {
      "bufferView": 2,
      "componentType": 5126,
      "count": 9573,
      "max": [
        0.16602595150470734,
        0.14841534197330475,
        0.43810269236564636
      ],
      "min": [
        -0.16604048013687134,
        -0.14261621236801147,
        -0.002596252830699086
      ],
      "type": "VEC3"
    },
    {
      "bufferView": 2,
      "byteOffset": 114876,
      "componentType": 5126,
      "count": 9573,
      "max": [
        0.9999967813491821,
        0.999855637550354,
        0.9998331665992737
      ],
      "min": [
        -0.9999586343765259,
        -0.99976646900177,
        -0.9999967217445374
      ],
      "type": "VEC3"
    },
    {
      "bufferView": 3,
      "componentType": 5126,
      "count": 9573,
      "max": [
        0.9999203085899353,
        0.9998645782470703,
        0.9997909069061279,
        1.0
      ],
      "min": [
        -0.9999508261680603,
        -0.9999966025352478,
        -0.9999784827232361,
        -1.0
      ],
      "type": "VEC4"
    },
    {
      "bufferView": 1,
      "componentType": 5126,
      "count": 9573,
      "max": [
        0.9999200105667114,
        0.9999930262565613
      ],
      "min": [
        4.938550046063028e-05,
        0.0006555154686793685
      ],
      "type": "VEC2"
    },
    {
      "bufferView": 0,
      "componentType": 5125,
      "count": 37008,
      "type": "SCALAR"
    }
  ],
  "asset": {
    "extras": {
      "author": "scbenoit (https://sketchfab.com/scbenoit)",
      "license": "CC-BY-4.0 (http://creativecommons.org/licenses/by/4.0/)",
      "source": "https://sketchfab.com/3d-models/mannequin-head-d465a1f697b54136b65288ce9c23b16f",
      "title": "Mannequin head"
    },
    "generator": "Sketchfab-14.91.0",
    "version": "2.0"
  },
  "bufferViews": [
    {
      "buffer": 0,
      "byteLength": 148032,
      "name": "floatBufferViews",
      "target": 34963
    },
    {
      "buffer": 0,
      "byteLength": 76584,
      "byteOffset": 148032,
      "byteStride": 8,
      "name": "floatBufferViews",
      "target": 34962
    },
    {
      "buffer": 0,
      "byteLength": 229752,
      "byteOffset": 224616,
      "byteStride": 12,
      "name": "floatBufferViews",
      "target": 34962
    },
    {
      "buffer": 0,
      "byteLength": 153168,
      "byteOffset": 454368,
      "byteStride": 16,
      "name": "floatBufferViews",
      "target": 34962
    }
  ],
  "buffers": [
    {
      "byteLength": 607536,
      "uri": "scene.bin"
    }
  ],
  "images": [
    {
      "uri": "textures/material_1_baseColor.png"
    },
    {
      "uri": "textures/material_1_metallicRoughness.png"
    },
    {
      "uri": "textures/material_1_normal.png"
    }
  ],
  "materials": [
    {
      "name": "material_1",
      "normalTexture": {
        "index": 2
      },
      "occlusionTexture": {
        "index": 1
      },
      "pbrMetallicRoughness": {
        "baseColorTexture": {
          "index": 0
        },
        "metallicFactor": 0.0,
        "metallicRoughnessTexture": {
          "index": 1
        }
      }
    }
  ],
  "meshes": [
    {
      "name": "model",
      "primitives": [
        {
          "attributes": {
            "NORMAL": 1,
            "POSITION": 0,
            "TANGENT": 2,
            "TEXCOORD_0": 3
          },
          "indices": 4,
          "material": 0,
          "mode": 4
        }
      ]
    }
  ],
  "nodes": [
    {
      "children": [
        1
      ],
      "matrix": [
        1.0,
        0.0,
        0.0,
        0.0,
        0.0,
        2.220446049250313e-16,
        -1.0,
        0.0,
        0.0,
        1.0,
        2.220446049250313e-16,
        0.0,
        0.0,
        0.0,
        0.0,
        1.0
      ],
      "name": "Sketchfab_model"
    },
    {
      "children": [
        2
      ],
      "matrix": [
        0.009999999776482582,
        0.0,
        0.0,
        0.0,
        0.0,
        2.2204459996194763e-18,
        0.009999999776482582,
        0.0,
        0.0,
        -0.009999999776482582,
        2.2204459996194763e-18,
        0.0,
        0.0,
        0.0,
        0.0,
        1.0
      ],
      "name": "USDRoot"
    },
    {
      "children": [
        3
      ],
      "matrix": [
        99.98017120361328,
        1.9915027618408203,
        -8.705134746378462e-08,
        0.0,
        0.0,
        -4.371138857095502e-06,
        -100.0,
        0.0,
        -1.9915027618408203,
        99.98017120361328,
        -4.370272108644713e-06,
        0.0,
        0.0,
        0.0,
        0.0,
        1.0
      ],
      "name": "model"
    },
    {
      "mesh": 0,
      "name": "model"
    }
  ],
  "samplers": [
    {
      "magFilter": 9729,
      "minFilter": 9987,
      "wrapS": 10497,
      "wrapT": 10497
    }
  ],
  "scene": 0,
  "scenes": [
    {
      "name": "Sketchfab_Scene",
      "nodes": [
        0
      ]
    }
  ],
  "textures": [
    {
      "sampler": 0,
      "source": 0
    },
    {
      "sampler": 0,
      "source": 1
    },
    {
      "sampler": 0,
      "source": 2
    }
  ]
}
