{
  "accessors": [
    {
      "bufferView": 2,
      "componentType": 5126,
      "count": 65534,
      "max": [
        0.8984259963035583,
        0.9542419910430908,
        1.4217870235443115
      ],
      "min": [
        -0.8927839994430542,
        -0.8395779728889465,
        -0.036288000643253326
      ],
      "type": "VEC3"
    },
    {
      "bufferView": 2,
      "byteOffset": 786408,
      "componentType": 5126,
      "count": 65534,
      "max": [
        0.9999991655349731,
        0.9999194145202637,
        0.9999996423721313
      ],
      "min": [
        -0.9999552965164185,
        -0.9999455213546753,
        -0.7738178968429565
      ],
      "type": "VEC3"
    },
    {
      "bufferView": 1,
      "componentType": 5126,
      "count": 65534,
      "max": [
        0.9906150102615356,
        0.8680999875068665
      ],
      "min": [
        0.016088999807834625,
        0.023003000766038895
      ],
      "type": "VEC2"
    },
    {
      "bufferView": 0,
      "componentType": 5125,
      "count": 65550,
      "type": "SCALAR"
    },
    {
      "bufferView": 2,
      "byteOffset": 1572816,
      "componentType": 5126,
      "count": 14654,
      "max": [
        0.298785001039505,
        0.48120999336242676,
        1.3924119472503662
      ],
      "min": [
        -0.39761099219322205,
        -0.4464240074157715,
        0.056283000856637955
      ],
      "type": "VEC3"
    },
    {
      "bufferView": 2,
      "byteOffset": 1748664,
      "componentType": 5126,
      "count": 14654,
      "max": [
        0.9553433656692505,
        0.9998852014541626,
        0.9959112405776978
      ],
      "min": [
        -0.9997730851173401,
        -0.9981614351272583,
        -0.4670197665691376
      ],
      "type": "VEC3"
    },
    {
      "bufferView": 1,
      "byteOffset": 524272,
      "componentType": 5126,
      "count": 14654,
      "max": [
        0.6587250232696533,
        0.6454820036888123
      ],
      "min": [
        0.008059999905526638,
        0.3500789999961853
      ],
      "type": "VEC2"
    },
    {
      "bufferView": 0,
      "byteOffset": 262200,
      "componentType": 5125,
      "count": 14658,
      "type": "SCALAR"
    },
    {
      "bufferView": 2,
      "byteOffset": 1924512,
      "componentType": 5126,
      "count": 57,
      "max": [
        0.6997920274734497,
        0.39869698882102966,
        0.43059098720550537
      ],
      "min": [
        -0.26313701272010803,
        -0.5154680013656616,
        -0.022298000752925873
      ],
      "type": "VEC3"
    },
    {
      "bufferView": 2,
      "byteOffset": 1925196,
      "componentType": 5126,
      "count": 57,
      "max": [
        0.9658229947090149,
        0.5813333988189697,
        0.9995967745780945
      ],
      "min": [
        -0.8634715676307678,
        -0.8277018070220947,
        -0.6630380749702454
      ],
      "type": "VEC3"
    },
    {
      "bufferView": 1,
      "byteOffset": 641504,
      "componentType": 5126,
      "count": 57,
      "max": [
        0.9254440069198608,
        0.9889910221099854
      ],
      "min": [
        0.09826000034809113,
        0.6175690293312073
      ],
      "type": "VEC2"
    },
    {
      "bufferView": 0,
      "byteOffset": 320832,
      "componentType": 5125,
      "count": 57,
      "type": "SCALAR"
    }
  ],
  "asset": {
    "extras": {
      "author": "higan69 (https://sketchfab.com/higan69)",
      "license": "CC-BY-4.0 (http://creativecommons.org/licenses/by/4.0/)",
      "source": "https://sketchfab.com/3d-models/neko-daruma-590562e23b3d465b93abf66135f41ea6",
      "title": "neko-daruma"
    },
    "generator": "Sketchfab-12.68.0",
    "version": "2.0"
  },
  "bufferViews": [
    {
      "buffer": 0,
      "byteLength": 321060,
      "name": "floatBufferViews",
      "target": 34963
    },
    {
      "buffer": 0,
      "byteLength": 641960,
      "byteOffset": 321060,
      "byteStride": 8,
      "name": "floatBufferViews",
      "target": 34962
    },
    {
      "buffer": 0,
      "byteLength": 1925880,
      "byteOffset": 963020,
      "byteStride": 12,
      "name": "floatBufferViews",
      "target": 34962
    }
  ],
  "buffers": [
    {
      "byteLength": 2888900,
      "uri": "scene.bin"
    }
  ],
  "extensionsUsed": [
    "KHR_materials_unlit"
  ],
  "images": [
    {
      "uri": "textures/model_baseColor.jpeg"
    },
    {
      "uri": "textures/model1_baseColor.jpeg"
    }
  ],
  "materials": [
    {
      "doubleSided": true,
      "extensions": {
        "KHR_materials_unlit": {}
      },
      "name": "model",
      "pbrMetallicRoughness": {
        "baseColorTexture": {
          "index": 0
        },
        "metallicFactor": 0.0
      }
    },
    {
      "doubleSided": true,
      "extensions": {
        "KHR_materials_unlit": {}
      },
      "name": "model1",
      "pbrMetallicRoughness": {
        "baseColorTexture": {
          "index": 1
        },
        "metallicFactor": 0.0
      }
    }
  ],
  "meshes": [
    {
      "name": "Object_0",
      "primitives": [
        {
          "attributes": {
            "NORMAL": 1,
            "POSITION": 0,
            "TEXCOORD_0": 2
          },
          "indices": 3,
          "material": 0,
          "mode": 4
        }
      ]
    },
    {
      "name": "Object_1",
      "primitives": [
        {
          "attributes": {
            "NORMAL": 5,
            "POSITION": 4,
            "TEXCOORD_0": 6
          },
          "indices": 7,
          "material": 0,
          "mode": 4
        }
      ]
    },
    {
      "name": "Object_2",
      "primitives": [
        {
          "attributes": {
            "NORMAL": 9,
            "POSITION": 8,
            "TEXCOORD_0": 10
          },
          "indices": 11,
          "material": 1,
          "mode": 4
        }
      ]
    }
  ],
  "nodes": [
    {
      "children": [
        1
      ],
      "matrix": [
        1.0,
        0.0,
        0.0,
        0.0,
        0.0,
        2.220446049250313e-16,
        -1.0,
        0.0,
        0.0,
        1.0,
        2.220446049250313e-16,
        0.0,
        0.0,
        0.0,
        0.0,
        1.0
      ],
      "name": "Sketchfab_model"
    },
    {
      "children": [
        2,
        3,
        4
      ],
      "name": "model.obj.cleaner.materialmerger.gles"
    },
    {
      "mesh": 0,
      "name": "Object_2"
    },
    {
      "mesh": 1,
      "name": "Object_3"
    },
    {
      "mesh": 2,
      "name": "Object_4"
    }
  ],
  "samplers": [
    {
      "magFilter": 9729,
      "minFilter": 9987,
      "wrapS": 10497,
      "wrapT": 10497
    }
  ],
  "scene": 0,
  "scenes": [
    {
      "name": "Sketchfab_Scene",
      "nodes": [
        0
      ]
    }
  ],
  "textures": [
    {
      "sampler": 0,
      "source": 0
    },
    {
      "sampler": 0,
      "source": 1
    }
  ]
}
