{
  "accessors": [
    {
      "bufferView": 2,
      "componentType": 5126,
      "count": 875,
      "max": [
        0.730940580368042,
        0.8402249217033386,
        0.8544070720672607
      ],
      "min": [
        -0.730940580368042,
        -0.6019080877304077,
        -0.5791416764259338
      ],
      "type": "VEC3"
    },
    {
      "bufferView": 2,
      "byteOffset": 10500,
      "componentType": 5126,
      "count": 875,
      "max": [
        0.9994378685951233,
        0.9997426271438599,
        0.9989989399909973
      ],
      "min": [
        -0.9994378685951233,
        -0.999480128288269,
        -0.9999999403953552
      ],
      "type": "VEC3"
    },
    {
      "bufferView": 3,
      "componentType": 5126,
      "count": 875,
      "max": [
        0.6545915603637695,
        0.9960242509841919,
        0.9997467398643494,
        1.0
      ],
      "min": [
        -1.0,
        -0.9989773631095886,
        -0.9994354844093323,
        1.0
      ],
      "type": "VEC4"
    },
    {
      "bufferView": 1,
      "componentType": 5126,
      "count": 875,
      "max": [
        0.9999999403953552,
        0.998188316822052
      ],
      "min": [
        0.00010478081094333902,
        0.0007251164643093944
      ],
      "type": "VEC2"
    },
    {
      "bufferView": 1,
      "byteOffset": 7000,
      "componentType": 5126,
      "count": 875,
      "max": [
        0.9999999403953552,
        0.998188316822052
      ],
      "min": [
        0.00010478081094333902,
        0.0007251164643093944
      ],
      "type": "VEC2"
    },
    {
      "bufferView": 1,
      "byteOffset": 14000,
      "componentType": 5126,
      "count": 875,
      "max": [
        0.9999999403953552,
        0.998188316822052
      ],
      "min": [
        0.00010478081094333902,
        0.0007251164643093944
      ],
      "type": "VEC2"
    },
    {
      "bufferView": 0,
      "componentType": 5125,
      "count": 4320,
      "type": "SCALAR"
    }
  ],
  "asset": {
    "extras": {
      "author": "Ramujiro (https://sketchfab.com/Ramzus)",
      "license": "CC-BY-4.0 (http://creativecommons.org/licenses/by/4.0/)",
      "source": "https://sketchfab.com/3d-models/daruma-deb599b14ece4825a46045be9dce3589",
      "title": "Daruma"
    },
    "generator": "Sketchfab-16.12.0",
    "version": "2.0"
  },
  "bufferViews": [
    {
      "buffer": 0,
      "byteLength": 17280,
      "name": "floatBufferViews",
      "target": 34963
    },
    {
      "buffer": 0,
      "byteLength": 21000,
      "byteOffset": 17280,
      "byteStride": 8,
      "name": "floatBufferViews",
      "target": 34962
    },
    {
      "buffer": 0,
      "byteLength": 21000,
      "byteOffset": 38280,
      "byteStride": 12,
      "name": "floatBufferViews",
      "target": 34962
    },
    {
      "buffer": 0,
      "byteLength": 14000,
      "byteOffset": 59280,
      "byteStride": 16,
      "name": "floatBufferViews",
      "target": 34962
    }
  ],
  "buffers": [
    {
      "byteLength": 73280,
      "uri": "scene.bin"
    }
  ],
  "images": [
    {
      "uri": "textures/Material.002_baseColor.png"
    },
    {
      "uri": "textures/Material.002_metallicRoughness.png"
    },
    {
      "uri": "textures/Material.002_normal.png"
    }
  ],
  "materials": [
    {
      "doubleSided": true,
      "name": "Material.002",
      "normalTexture": {
        "index": 2,
        "scale": 0.24228645268252244
      },
      "pbrMetallicRoughness": {
        "baseColorTexture": {
          "index": 0
        },
        "metallicRoughnessTexture": {
          "index": 1
        }
      }
    }
  ],
  "meshes": [
    {
      "name": "Cube.004_Material.002_0",
      "primitives": [
        {
          "attributes": {
            "NORMAL": 1,
            "POSITION": 0,
            "TANGENT": 2,
            "TEXCOORD_0": 3,
            "TEXCOORD_1": 4,
            "TEXCOORD_2": 5
          },
          "indices": 6,
          "material": 0,
          "mode": 4
        }
      ]
    }
  ],
  "nodes": [
    {
      "children": [
        1
      ],
      "matrix": [
        1.0,
        0.0,
        0.0,
        0.0,
        0.0,
        2.220446049250313e-16,
        -1.0,
        0.0,
        0.0,
        1.0,
        2.220446049250313e-16,
        0.0,
        0.0,
        0.0,
        0.0,
        1.0
      ],
      "name": "Sketchfab_model"
    },
    {
      "children": [
        2
      ],
      "matrix": [
        0.009999999776482582,
        0.0,
        0.0,
        0.0,
        0.0,
        0.0,
        0.009999999776482582,
        0.0,
        0.0,
        -0.009999999776482582,
        0.0,
        0.0,
        0.0,
        0.0,
        0.0,
        1.0
      ],
      "name": "5cb66323460c43b8b866725e12b6afab.fbx"
    },
    {
      "children": [
        3
      ],
      "name": "RootNode"
    },
    {
      "children": [
        4
      ],
      "matrix": [
        69.40557098388672,
        0.0,
        0.0,
        0.0,
        0.0,
        -1.1307601535286665e-05,
        -69.40556335449126,
        0.0,
        0.0,
        69.40556335449126,
        -1.1307601535286665e-05,
        0.0,
        0.0,
        333.4216003417969,
        0.0,
        1.0
      ],
      "name": "Cube.004"
    },
    {
      "mesh": 0,
      "name": "Cube.004_Material.002_0"
    }
  ],
  "samplers": [
    {
      "magFilter": 9729,
      "minFilter": 9987,
      "wrapS": 10497,
      "wrapT": 10497
    }
  ],
  "scene": 0,
  "scenes": [
    {
      "name": "Sketchfab_Scene",
      "nodes": [
        0
      ]
    }
  ],
  "textures": [
    {
      "sampler": 0,
      "source": 0
    },
    {
      "sampler": 0,
      "source": 1
    },
    {
      "sampler": 0,
      "source": 2
    }
  ]
}
